<?xml version="1.0" encoding="UTF-8"?>
<svg id="Layer_2" data-name="Layer 2" xmlns="http://www.w3.org/2000/svg" viewBox="0 0 73.44 77.95">
  <defs>
    <style>
      .cls-1 {
        fill: #e31b7b;
        stroke-width: 0px;
      }
    </style>
  </defs>
  <g id="Layer_1-2" data-name="Layer 1">
    <path class="cls-1" d="M56.04.46c-.28.6-.62,1.17-.29,1.9,2.43,5.48,1.12,10.54-1.9,15.33-.69,1.1-.8,2.11-.67,3.29.96.17,1.42-.55,1.97-1,4.14-3.38,8.7-5.63,14.22-5.37,1.12.05,2.15.33,3.06,1,.89.65.95,1.34.08,1.99-.74.55-1.59.98-2.51,1.14-2.93.52-5.59,1.6-8.18,3.11-1.78,1.05-3.87,1.64-5.89,2.19-1.59.44-2.84,1.01-3.1,2.8-.06.41-.64.57-.56,1.08.44.43,1.01.51,1.59.59,7.9,1.08,13.49,5.64,17.86,11.98.47.68.88,1.5,1.01,2.3,1.61,10.4.98,15.81-7.04,22.34-1.83,1.49-3.9,2.64-5.99,3.73-1.4.73-2.81.94-4.39.57-2.62-.62-5.22-1.35-7.73-2.31-1.09-.42-1.55-.09-1.89.86-.47,1.35-.89,2.72-1.45,4.03-2.14,5.05-3.76,6.11-9.24,5.92-3.3-.11-6.31-.96-8.49-3.72-.83-1.05-1.82-1.98-2.72-2.99-2.15-2.42-2.88-5.25-2.34-8.42.08-.5.15-1,.18-1.5.25-4.45.26-4.4-3.99-3.53-4.84.99-9.53.91-13.71-2.26C.83,53.14-.36,49.98.09,46.21c.43-3.55,2.51-5.77,5.92-6.77.95-.28,1.98-.34,3.02-1-1.12-2.05-2.22-4.11-3.36-6.13-2.21-3.92-2.3-8.05-1.03-12.22,1.01-3.33,3.54-5.66,5.92-8.04,4.22-4.24,9.56-5.36,15.27-5.4,2.24-.01,4.33.87,6.29,1.7,3.47,1.48,6.77,3.45,9.02,6.64,1.34,1.9,2.83,3.72,3.64,6,.72,2.02,1.57,2,2.97.26,1.53-1.9,2.25-4,2.39-6.48.16-2.92.19-5.87.75-8.78.31-1.6.87-2.88,2.42-3.57.82-.37,1.47-.86,1.18-1.92.5-.65,1.01-.67,1.55-.04ZM51.68,63.38c6.83-.15,12.51-2.36,15.68-8.92.99-2.05,1.75-4.2,2.14-6.44.77-4.36-.52-8.27-4.07-10.72-4.47-3.08-9.68-4.59-15.14-5.05-1.41-.12-2.58.35-3.68,1.3-1.91,1.67-3.66,3.47-5.18,5.49-2.27,3.01-4.75,5.85-6.83,9.03-2.2,3.36-4.68,6.54-7.06,9.78-2.9,3.93-2.33,8.04-1.67,12.28.1.65.57,1.21,1.14,1.62,2.16,1.52,4.59,2.19,7.15,1.67,3.72-.75,5.87-3.38,7.19-6.76.95-2.42.46-4.63-1.33-6.51-.98-1.04-2.02-2.01-3.04-3.02-.85-.84-1.51-1.8-1.76-3-.07-.36.02-.7.31-.9.29-.2.65-.15.94.05.7.47,1.29,1.06,1.84,1.7,1.79,2.08,3.35,4.42,6.15,5.39.58.2,1.11.8,1.46,1.34.77,1.21,1.97,1.5,3.23,1.65.83.1,1.68.02,2.52.02ZM22.29,43.25c-1.01.61-1.78.04-2.49-.27-2.92-1.28-6.03-1.41-9.13-1.55-1.23-.06-2.22.49-3.12,1.38-2.4,2.37-3.11,5.31-3.05,8.52.03,1.76,1.16,2.88,2.9,2.8,3.61-.17,7.21-.36,10.79-.98,2.44-.42,4.53-1.47,6.08-3.29,2.39-2.81,5.16-5.3,7.29-8.33,1.41-2.01,3.06-3.78,4.86-5.44,1.98-1.83,3.62-3.97,5.1-6.22,1.02-1.55,1.2-3.13-.02-4.67-1.07-1.35-1.63-2.92-2.04-4.57-.32-1.31-.79-2.58-1.44-3.76-1.27-2.32-2.86-4.5-5.28-5.6-3.3-1.5-6.91-1.84-10.34-.61-5.44,1.95-9.63,5.4-11.7,11.02-1.31,3.55-1.59,7.25-1.23,10.94.32,3.26,2.1,5.58,5.53,6.38,1.38.32,2.73.86,4.05,1.39,1.39.56,2.54,1.44,3.24,2.86Z"/>
  </g>
</svg>