<?xml version="1.0" encoding="UTF-8"?>
<svg id="Layer_2" data-name="Layer 2" xmlns="http://www.w3.org/2000/svg" viewBox="0 0 432.13 81.47">
  <defs>
    <style>
      .cls-1 {
        fill: #e31b7b;
      }

      .cls-1, .cls-2, .cls-3, .cls-4 {
        stroke-width: 0px;
      }

      .cls-2 {
        fill: #f0e1ea;
      }

      .cls-3 {
        fill: #ec008c;
      }

      .cls-4 {
        fill: #f0e6e8;
      }
    </style>
  </defs>
  <g id="Layer_1-2" data-name="Layer 1">
    <g>
      <rect class="cls-1" y="1.56" width="79.74" height="79.74"/>
      <g>
        <path class="cls-1" d="M250.73,62.15c0,4.14,0,8.27,0,12.41,0,3.34-1.7,4.79-4.99,4.8-3.36,0-5.22-1.1-5.18-4.88.1-9.74.53-19.46,1.42-29.15.31-3.42-.64-4.86-4.24-3.74-1.51.47-3.13.82-4.7.81-1.48,0-3.02-.66-3.22-2.41-.2-1.82,1.13-2.44,2.72-2.82,3.94-.96,7.95-.5,11.92-.77.88-.06,2.2.11,2.65.69,3.61,4.65,6.92.9,10.21-.33,5.75-2.13,11.82.95,13.31,6.93,2.55,10.25,1.52,20.69,1.59,31.06.02,2.86-1.86,4.51-5.02,4.46-3.26-.05-4.5-1.81-4.62-4.78-.29-7.23,1.23-14.34,1.37-21.54.02-1.33.03-2.67,0-4-.11-4.84-1.7-7.2-4.89-7.27-4.5-.1-8.34,3.3-8.46,7.71-.12,4.27-.03,8.54-.03,12.81.05,0,.1,0,.15,0ZM252.39,42.42c-1.39-1.14-3.64.5-3.92-1.69-.35-2.74-2.2-2.5-4.08-2.49-3.2.02-6.4-.05-9.6.06-1.17.04-3.21-.61-3.11,1.38.1,1.9,2.08,1,3.27,1.14.51.06,1.06-.09,1.57-.24q6.87-1.93,6.84,5.06c0,.67-.02,1.33,0,2,.19,8.26-.36,16.47-1.48,24.65-.39,2.86.18,5.79,3.66,5.9,3.44.11,3.67-2.82,3.6-5.49-.1-3.58-.4-7.18-.5-10.74-.2-6.72-2.23-13.97,3.76-19.54ZM254.95,39.88c8.66-.28,10.12,1.05,10.1,9.71-.02,8.39-.11,16.78-.13,25.17,0,1.31-.12,2.78,1.82,2.98,1.69.17,2.87-.49,3.42-2.09.3-.87.57-1.81.54-2.71-.25-9.04-.34-18.09-.98-27.1-.23-3.24-1.74-6.47-5.42-7.64-3.42-1.09-6.53-.26-9.35,1.68Z"/>
        <path class="cls-1" d="M128.58,18.31c-3.04,16.23-1.49,32.58-1.3,48.89-1.36,1.05-1.3,1.91.35,2.55.66,1.94.68,3.97.46,5.93-.33,2.94-2.32,3.91-5.12,3.8-2.62-.1-4.5-.98-4.4-3.93.56-17.15-1.85-34.43,2.02-51.44,1.55-6.82,4.12-13.17,9.62-17.9,1.63.23,2.39-.63,2.65-2.11.07-.26.23-.37.5-.33,2.6.22,4.71-2.52,7.63-1.1-1.07,1-3.27.6-3.49,2.61-.54.33-1.07.66-1.61.99-1.09-.06-1.6.47-1.56,1.55-.66.79-1.32,1.58-1.98,2.38-2.95,1.92-3.65,4.88-3.77,8.12Z"/>
        <path class="cls-1" d="M387.81,55.39c-.33,5.98-1.01,12,.25,17.94.67,3.17-.46,5.26-3.84,5.67-3.45.42-5.09-1.11-5.17-4.83-.19-8.94.62-17.84,1.26-26.74.46-6.36-.2-6.81-6.26-4.98-.88.26-1.82.56-2.71.51-1.3-.08-2.25-.95-2.49-2.24-.27-1.41.61-2.42,1.86-2.66,5.01-.96,10.09-.83,15.1-.19,1.87.24,1.97,2.32,1.98,3.94.03,4.53.01,9.06.01,13.58Z"/>
        <path class="cls-1" d="M201.86,39.72c.51-.07,1.03-.14,1.54-.21,1.88,1.06,3.92.21,5.86.5,4.47.65,8.61,2.16,11.19,6.02,5.15,7.68,4.18,25.83-5.45,31.24-9.45,5.31-17.85,2.57-22.57-5-5.36-8.6-3.87-26.1,8.2-31.07.52-.21.82-.97,1.22-1.47ZM201.8,44.04c-3.3,1.63-4.99,5.2-4.15,8.76-.13,1.83-.25,3.67-.38,5.5-1.82,1.41-1.81,2.82,0,4.24.13,2.1.26,4.2.39,6.3-.55,3.7.63,6.74,4.08,8.22,1.36.59,3.18,3.15,4.93.27.76-.11,1.53-.22,2.29-.33,2.25.68,2.85-.77,3.22-2.51.34-.52.69-1.04,1.03-1.56.88-.1,1.56-.64,1.79-1.39,2.59-8.29,4.43-16.64.64-25.07-1.48-3.28-4.24-5.17-7.73-5.51-2.48-.24-5.03.2-6.12,3.1h.01Z"/>
        <path class="cls-1" d="M360.13,15.98c.03,2.39.13,4.78-.56,7.12-2.22,1.8-1.7,3.73-.3,5.72-.15,5.85-.3,11.7-.45,17.55-.7.06-1.39.26-1.39,1.08-.03,5.91-.02,11.82-.02,17.73,0,.96.09,1.88,1.28,2.12.03,3.29,1.27,6.6-.22,9.85-2.09.03-4.18.06-6.27.1,0,0-.11-.08-.11-.08.86-2.09-2.98-2.99-1.33-5.27.13-1.53.27-3.06.4-4.59,2.23-4.09,1.36-8.68,1.71-12.98.34-4.24,1.84-9.03-1.73-12.91-.43-.47-.07-.93.31-1.36,3.95-4.51,2.73-9.53,1.41-14.56.02-5.84.05-11.67.07-17.51.56-.23.83-.68.5-1.19-.31-.48-.87-.45-1.38-.21-.65.04-1.3.07-1.94.11-.12-.61-.56-.98-1.06-.66-.31.21-.33.87-.48,1.32-1.88.83-3.86.82-5.84.57-1.24-.16-1.79-1.08-1.91-2.21-.14-1.3.74-2.14,1.85-2.11,5.49.16,11.05-1.06,16.46.72-.04,1.44-.29,2.91-.07,4.31.38,2.44-1.36,5.2,1.05,7.33Z"/>
        <path class="cls-1" d="M432.12,61.91c0,5.01-.02,8.88,0,12.75.02,2.24-.67,4.14-3.1,4.4-2.19.24-4.62.47-5.32-2.72-.64-2.9-2.49-1.22-3.64-.56-2.78,1.61-5.54,3.16-8.82,3.47-4.21.4-8.13-.28-10.63-4.04-3.2-4.81-2.11-9.8.55-14.34,3.79-6.49,10.53-8.07,17.27-9.49,1.84-.39,4.73.93,5.13-2.32.42-3.42-.06-7.06-3.19-8.85-2.34-1.34-5.39-1.24-7.84.94-1.62,1.44-1.84,3.45-2.69,5.22-1.04,2.16-1.24,5.85-5.15,4.71-2.65-.78-3.49-4.85-1.71-8.09,3.35-6.12,8.86-8.02,15.49-7.57,5.73.38,9.62,3.62,11.86,9.07,2.5,6.07,1.38,12.37,1.78,17.43ZM419.11,55.03c-1.01-1.3-2.38-1.63-3.93-1.39-6.32.99-11.65,3.98-13.96,9.94-1.32,3.41-2.11,7.9.98,11.31,3.2,3.54,7.1,4.25,11.65,2.51,2.65-1.01,5.03-2.39,7.39-3.88,1.46-.92,2.84-1.22,3.31.97.46,2.15,1.54,3.52,3.83,3.09,2.52-.47,2.69-2.53,2.73-4.66.15-8.8.29-17.62-1.72-26.24-.84-3.6-2.56-7-6.97-7.91,2.76,3.34,2.36,7.23,2.17,11.01-.09,1.81-1.06,3.54-.77,5.44-1.54-.93-3.17.57-4.71-.17ZM418.7,37.1c-6.91-.95-13.11,2.46-14.71,7.83-.46,1.54-.5,3.07,1.17,3.77,1.95.81,2.16-.75,2.9-2.14,1.41-2.67,1.41-6.43,5.23-7.49,1.74-.48,3.41-1.23,5.4-1.97Z"/>
        <path class="cls-1" d="M307.41,40.05c-7.26-2.12-9.33-1.1-12.05,5.95-.24.62-.55,1.22-.83,1.82-.75,1.58-1.61,3.61-3.67,2.73-2.21-.94-3.31-2.95-2.49-5.61,1.81-5.86,8.06-9.64,15.46-9.26,6.37.32,10.86,4.26,12.15,10.64-.65,2.86-1.36,5.73,1.39,8.01.09,6.21.2,12.42.25,18.63.02,2.34-.53,4.53-3.21,5-2.55.45-4.77-.02-5-3.35-.06-.86-.91-.77-1.57-.72-.9-.6-2.41-.97-.91-2.46,2.82-1.15,3.74-3.25,3.73-6.25-.03-4.88-.03-9.73-1.15-14.51.07-1.67.14-3.34.21-5.01,1.13-1.35,1.65-2.58-.67-3.22-.21-.1-.26-.25-.15-.46.23-1.19-.1-1.96-1.48-1.92Z"/>
        <path class="cls-1" d="M177.39,41.68c.08.5.15,1.01.23,1.51-1.37,2.24-.69,4.74-.47,7,.72,7.29-1.49,13.47-5.95,19.13-3.5,4.44-8.2,6.74-13.59,9.19.43-2.5,1.98-2.64,3.05-3.29,6.43-3.91,10.96-14.23,9.11-20.8,0-2.41-.02-4.83-.03-7.24,1.15-4.27-1.18-9.65-5.12-11.8-.11-2.85-2.71-3.24-4.46-4.37-1.36-.88-2.84-1.45-2.71-3.43.3.01.61.02.91.03.32.67.95.77,1.58.99,5.48,1.95,11.08,3.58,14.49,9.02.86,1.37.14,4.08,2.95,4.05Z"/>
        <path class="cls-1" d="M201.86,39.72c-.4.5-.7,1.26-1.22,1.47-12.07,4.97-13.57,22.47-8.2,31.07,4.72,7.57,13.12,10.31,22.57,5,9.63-5.41,10.59-23.56,5.45-31.24-2.59-3.86-6.73-5.36-11.19-6.02-1.95-.29-3.99.56-5.86-.5,10.87-2.72,19.29,2.36,21.29,12.7,1.39,7.18.76,14.34-3.41,20.8-4.17,6.45-11.23,9.79-19.01,7.94-6.83-1.62-11.08-6.27-13.13-13.15-2.57-8.62-1.21-16.36,4.45-23.22,2.07-2.51,4.58-4.83,8.26-4.87Z"/>
        <path class="cls-1" d="M328.82,53.54c1.58-5.9,3.52-11.53,9.45-14.7,1.74-.93,3.4-1.44,5.32-1.15.51,1.4-.56,2.44-.82,3.67-1.68.32-2.64,1.66-3.82,2.68-3.1,2.04-4.58,6.7-3.29,10.38,0,2.93.02,5.85.02,8.78-1.42,2.16-1.17,3.85,1.37,4.9.1.5.21,1,.31,1.5q-.84,1.27.87,1.52c1.25,1.16,2.5,2.32,3.75,3.47.91,2.64,4.46.13,5.37,2.76-5.93,3.62-12.93,1.23-16.34-5.58.69-1.31.23-1.96-1.18-2.06-.32-1.34-.65-2.68-.97-4.03,2.06-2.96.64-5.55-.85-8.13.07-.54.15-1.09.22-1.63,1.98-.35,2.07-1.17.6-2.39Z"/>
        <path class="cls-1" d="M169.78,54.42c1.85,6.57-2.68,16.9-9.11,20.8-1.08.65-2.62.79-3.05,3.29,5.39-2.45,10.09-4.75,13.59-9.19,4.46-5.66,6.67-11.84,5.95-19.13-.23-2.27-.9-4.76.47-7,5.34,13.79-3.28,30.93-17.77,36.09-7.95,2.83-15.61,2.45-23.34-.31-2.02-.72-3.7-2.03-5.21-3.58-1.62-1.66-1.25-3.46-.09-5.01,1.17-1.55,3-2.04,4.55-.62,3.59,3.27,7.98,5.09,12.24,7.16-1.33,1.25-2.67.62-4.01,0-2.54-1.16-4.74-2.84-7.03-4.42-1.33-.92-3.11-2.55-4.5-.52-1.32,1.92.72,3.4,2,4.09,5.7,3.07,11.86,4.18,18.33,3.35,2.06-.27,1.51-1.31.84-2.45,5.93-2.32,11.08-5.59,13.28-11.95,1.19-3.45,1.92-7.07,2.86-10.61Z"/>
        <path class="cls-1" d="M305.99,75.03c-4.28,2.83-8.76,5.2-14.09,3.6-3.18-.96-5.81-2.78-6.21-6.53,1.4-1.93,1.42-3.83-.07-5.72,1.03-7.46,6.23-12.14,14.98-13.47,1.05,1.04,2.47.57,3.74.88-.12,1.04-1.81.6-1.63,1.81-.52.11-1.04.22-1.56.33-1.33-1.14-1.47-.14-1.61.88-.38.13-.76.26-1.15.39-1.21-.5-1.98-.24-2.06,1.2-.82.8-1.65,1.59-2.47,2.39-1.9.8-2.84,1.99-1.63,4.04.02,1.34.05,2.68.07,4.02-1.85,2.94,1.06,3.86,2.49,4.66,2.23,1.24,4.99,3.14,7.29-.21.49-.15.98-.29,1.47-.44.81.73,1.63,1.46,2.44,2.2Z"/>
        <path class="cls-1" d="M146.43,3.75c-.51-.05-1.01-.11-1.52-.16-.1-1.28-2.24-1.56-1.57-3.21,1.24-.5,2.5-.43,3.77-.15,3.16,2.17,7,2.81,10.34,4.57.25.03.38.18.38.43.13.63.1,1.34.4,1.87,2.84,5.04,2.09,9.85-.62,14.68-1.11,1.97-4.24,3.26-2.29,6.43.38.61-.58.71-1.03.66-5.3-.66-9.76,1.92-14.46,3.66-1.17.44-3.08,1.11-3.45-.46-.43-1.8,1.6-1.47,2.82-1.79,4.54-1.19,9.6-1.47,12.24-6.3,1.88-3.44,3.04-7.3,2.68-11.06-.24-2.57.08-6.35-3.93-7.25-.68-.49-1.36-.97-2.03-1.46-.37-.93-.85-1.45-1.72-.44Z"/>
        <path class="cls-1" d="M150.19,5.65c4.01.91,3.69,4.69,3.93,7.25.36,3.76-.8,7.62-2.68,11.06-2.63,4.83-7.7,5.1-12.24,6.3-1.21.32-3.25-.01-2.82,1.79.37,1.57,2.28.9,3.45.46,4.69-1.75,9.15-4.32,14.46-3.66.45.06,1.41-.04,1.03-.66-1.95-3.16,1.18-4.46,2.29-6.43,2.71-4.82,3.46-9.64.62-14.68-.3-.53-.28-1.24-.4-1.87,6.05,4.98,4.18,11.52.85,17.28-.87,1.5-3.22,2.84-1.2,5.09-.13,1.97,1.35,2.55,2.71,3.43,1.75,1.13,4.35,1.53,4.46,4.37-1.76-1.12-3.49-2.3-5.3-3.34-5.48-3.13-10.82-1.6-16.06.68-1.74.75-3.48,1.36-5.33,1.55-1.46.15-3.13.2-3.56-1.68-.4-1.74.71-2.77,2.28-3.21,2.43-.68,4.88-1.3,7.34-1.85,3.69-.82,6.46-2.95,7.37-6.52,1.31-5.15,2.03-10.46-1.18-15.35Z"/>
        <path class="cls-1" d="M385.81,11.24c.16.53.68,1.05.53,1.98-.97,5.86-3.29,12.25-6.37,18.88-.61,1.3-1.63,2.84-2.82,3.18-1.26.36-.87-1.15-.66-2.28,1.02-5.29,2.12-10.63,3.21-15.95.38-1.85,1.38-3.66,2.98-5.24,1.45-1.43,2.16-.9,3.13-.56Z"/>
        <path class="cls-1" d="M342.78,41.36c.26-1.23,1.32-2.27.82-3.67,1.03-.05,2.09-.26,3.09-.12,4.85.7,4.75.72,5.29-4.37.27-2.57-.28-5.25.9-7.71,1.31,5.03,2.54,10.05-1.41,14.56-.38.43-.74.89-.31,1.36,3.57,3.88,2.07,8.67,1.73,12.91-.35,4.3.52,8.89-1.71,12.98-.68-6.78.01-13.56.12-20.34.05-3.53-1.62-5.15-4.94-5.42-1.18-.09-2.37-.12-3.56-.18Z"/>
        <path class="cls-1" d="M153.64,76.98c.67,1.14,1.22,2.18-.84,2.45-6.47.83-12.63-.28-18.33-3.35-1.28-.69-3.32-2.16-2-4.09,1.4-2.03,3.18-.4,4.5.52,2.28,1.58,4.49,3.26,7.03,4.42,1.34.61,2.68,1.25,4.01,0,1.88.02,3.76.04,5.64.06Z"/>
        <path class="cls-1" d="M302.71,55.6c-.18-1.22,1.51-.77,1.63-1.81-1.27-.31-2.69.16-3.74-.88,2.6-2.23,6.03-1.14,8.91-2.24,1.12,4.78,1.12,9.63,1.15,14.51.02,3-.91,5.1-3.73,6.25-.16-.17-.31-.33-.47-.5,2.75-2.23,2.93-5.3,2.97-8.53.09-7.35.15-7.35-6.72-6.8Z"/>
        <path class="cls-1" d="M177.39,41.68c-2.81.04-2.09-2.68-2.95-4.05-3.41-5.44-9.02-7.08-14.49-9.02-.63-.22-1.27-.32-1.58-.99,8.4-.84,16.63,5.25,19.02,14.06Z"/>
        <path class="cls-1" d="M358.69,67.3c-1.2-.24-1.28-1.17-1.28-2.12,0-5.91-.01-11.82.02-17.73,0-.82.7-1.02,1.39-1.08.4,6.98.41,13.96-.13,20.94Z"/>
        <path class="cls-1" d="M143.34.37c-.67,1.66,1.47,1.94,1.57,3.21-2.47.56-4.94,1.13-7.41,1.69.21-2.01,2.41-1.62,3.49-2.61-2.92-1.42-5.03,1.33-7.63,1.1,2.89-2.42,6.08-3.95,9.98-3.39Z"/>
        <path class="cls-1" d="M347.36,77.36c-.91-2.63-4.46-.13-5.37-2.76,3.4.62,6.03-1.24,8.78-2.71-1.65,2.29,2.2,3.19,1.33,5.27-1.61-.58-3.17-.08-4.74.2Z"/>
        <path class="cls-1" d="M164.64,35.38c3.94,2.15,6.27,7.53,5.12,11.8-1.58-3.99-2.96-8.06-5.12-11.8Z"/>
        <path class="cls-1" d="M157.44,4.78c-3.34-1.76-7.18-2.39-10.34-4.57,4.27-.34,7.81.97,10.34,4.57Z"/>
        <path class="cls-1" d="M360.13,15.98c-2.41-2.14-.67-4.89-1.05-7.33-.22-1.4.03-2.87.07-4.31,1.22-.05,1.61.79,1.62,1.74.03,3.31.59,6.67-.64,9.9Z"/>
        <path class="cls-1" d="M328,57.56c1.49,2.58,2.91,5.18.85,8.13-1.68-2.57-1.61-5.31-.85-8.13Z"/>
        <path class="cls-1" d="M128.58,18.31c.11-3.24.82-6.2,3.77-8.12-1.02,2.82-1.99,5.66-3.77,8.12Z"/>
        <path class="cls-1" d="M317.36,54.33c-2.75-2.27-2.04-5.14-1.39-8.01,2.12,2.38,1.64,5.21,1.39,8.01Z"/>
        <path class="cls-1" d="M359.27,28.81c-1.41-1.98-1.92-3.92.3-5.72.74,1.95.61,3.85-.3,5.72Z"/>
        <path class="cls-1" d="M285.62,66.38c1.49,1.89,1.47,3.8.07,5.72-1.66-1.89-1.34-3.8-.07-5.72Z"/>
        <path class="cls-1" d="M305.99,75.03c-.81-.73-1.63-1.46-2.44-2.2.6-1.21,1.61-1.79,2.92-1.91.16.16.31.33.47.5-1.5,1.49.01,1.86.91,2.46-.18,1.09-.94,1.25-1.85,1.15Z"/>
        <path class="cls-1" d="M352.2,77.25c2.09-.03,4.18-.06,6.27-.1-2.05,2.74-4.14,2.67-6.27.1Z"/>
        <path class="cls-1" d="M309.04,42.43c2.32.64,1.8,1.87.67,3.22-.74-.97-.97-2.04-.67-3.22Z"/>
        <path class="cls-1" d="M132.86,4.09c-.27,1.48-1.03,2.34-2.65,2.11.5-1.19,1.22-2.09,2.65-2.11Z"/>
        <path class="cls-1" d="M127.63,69.74c-1.65-.64-1.71-1.49-.35-2.55,1.07.72.87,1.61.35,2.55Z"/>
        <path class="cls-1" d="M328.82,53.54c1.47,1.21,1.38,2.04-.6,2.39-.66-1.01-.43-1.8.6-2.39Z"/>
        <path class="cls-1" d="M146.43,3.75c.87-1.01,1.35-.49,1.72.44-.69.31-1.25.12-1.72-.44Z"/>
        <path class="cls-1" d="M134.33,7.81c-.04-1.08.46-1.61,1.56-1.55-.07.97-.5,1.57-1.56,1.55Z"/>
        <path class="cls-1" d="M352.07,6.58c.51-.24,1.07-.27,1.38.21.32.5.06.95-.5,1.19-.69-.22-.96-.69-.87-1.4Z"/>
        <path class="cls-1" d="M348.59,7.36c.15-.46.17-1.12.48-1.32.5-.32.94.05,1.06.66-.27.78-.79,1-1.54.67Z"/>
        <path class="cls-1" d="M307.41,40.05c1.38-.04,1.71.73,1.48,1.92-1.19-.1-1.49-.9-1.48-1.92Z"/>
        <path class="cls-1" d="M329.83,69.73c1.41.1,1.87.75,1.18,2.06-1-.34-1.45-.99-1.18-2.06Z"/>
        <path class="cls-1" d="M252.39,42.42c-5.99,5.57-3.96,12.81-3.76,19.54.11,3.56.41,7.15.5,10.74.07,2.67-.16,5.61-3.6,5.49-3.48-.11-4.05-3.05-3.66-5.9,1.13-8.18,1.68-16.39,1.48-24.65-.02-.67,0-1.33,0-2q.02-6.99-6.84-5.06c-.51.14-1.06.3-1.57.24-1.19-.15-3.17.76-3.27-1.14-.1-1.98,1.93-1.34,3.11-1.38,3.2-.11,6.4-.04,9.6-.06,1.88-.01,3.73-.25,4.08,2.49.28,2.19,2.53.55,3.92,1.69Z"/>
        <path class="cls-1" d="M254.95,39.88c2.82-1.94,5.93-2.76,9.35-1.68,3.68,1.17,5.19,4.4,5.42,7.64.63,9.01.73,18.06.98,27.1.02.9-.25,1.84-.54,2.71-.55,1.59-1.72,2.26-3.42,2.09-1.94-.2-1.82-1.67-1.82-2.98.02-8.39.12-16.78.13-25.17.02-8.66-1.44-9.99-10.1-9.71Z"/>
        <path class="cls-1" d="M213.21,72.94c2-6.36,3.21-12.87,2.49-19.51-1.09-9.94-4.69-12.23-13.91-9.37,1.09-2.89,3.64-3.34,6.12-3.1,3.5.34,6.26,2.23,7.73,5.51,3.8,8.44,1.95,16.78-.64,25.07-.23.75-.91,1.29-1.79,1.39Z"/>
        <path class="cls-1" d="M197.66,68.84c1,.78,1.36,1.95,1.63,3.07.97,3.9,4.11,4.73,7.38,5.43-1.75,2.88-3.57.32-4.93-.27-3.45-1.48-4.63-4.53-4.08-8.22Z"/>
        <path class="cls-1" d="M201.8,44.04c-1.38,2.92-2.77,5.84-4.15,8.76-.84-3.56.85-7.12,4.15-8.76Z"/>
        <path class="cls-1" d="M197.27,58.3c.52,1.41.53,2.83,0,4.24-1.8-1.42-1.82-2.83,0-4.24Z"/>
        <path class="cls-1" d="M208.97,77c.89-1.07,1.63-2.33,3.22-2.51-.37,1.74-.97,3.18-3.22,2.51Z"/>
        <path class="cls-1" d="M423.82,55.21c-.3-1.9.67-3.63.77-5.44.19-3.78.59-7.66-2.17-11.01,4.41.91,6.12,4.31,6.97,7.91,2.02,8.62,1.88,17.44,1.72,26.24-.04,2.13-.21,4.19-2.73,4.66-2.28.43-3.37-.95-3.83-3.09-.47-2.19-1.85-1.89-3.31-.97-2.36,1.5-4.74,2.87-7.39,3.88-4.55,1.74-8.45,1.03-11.65-2.51-3.09-3.41-2.3-7.9-.98-11.31,2.31-5.96,7.64-8.95,13.96-9.94,1.55-.24,2.92.09,3.93,1.39-.19.14-.4.17-.62.09-.68-.64-1.32-.65-1.91.12-.75.28-1.5.57-2.26.85-2.1.36-4.63.07-4.91,3.21-.26.24-.52.49-.78.73-2.81,1.15-3.36,2.27-2.01,4.06-.12,1.3-.25,2.61-.37,3.91-.5.11-.93.31-.8.93.16.75.73.84,1.37.76.23.09.33.26.28.51-.29,1.11.11,1.76,1.27,1.91.82.44,1.64.88,2.46,1.32,1.72,1.8,3.41,1.7,5.08-.09.7-.21,1.4-.41,2.09-.62,1.13.31,1.78-.07,1.87-1.28.66-.41,1.32-.83,1.98-1.24,2.13,0,2.74-1.04,2.01-2.98-.02-4.01-.04-8.02-.06-12.03Z"/>
        <path class="cls-1" d="M418.7,37.1c-1.98.73-3.65,1.48-5.4,1.97-3.83,1.06-3.82,4.81-5.23,7.49-.74,1.4-.95,2.96-2.9,2.14-1.67-.7-1.63-2.23-1.17-3.77,1.59-5.37,7.79-8.78,14.71-7.83Z"/>
        <path class="cls-1" d="M338.96,44.04c-1.88,3.21-1.35,7.19-3.29,10.38-1.28-3.69.19-8.35,3.29-10.38Z"/>
        <path class="cls-1" d="M335.69,63.2c1.2,1.43,1.44,3.12,1.37,4.9-2.54-1.05-2.79-2.74-1.37-4.9Z"/>
        <path class="cls-1" d="M337.36,69.6c.72.26.98.79.87,1.52q-1.72-.25-.87-1.52Z"/>
        <path class="cls-1" d="M292.29,68.84c2,4.25,5.72,4.73,9.78,4.44-2.3,3.35-5.06,1.45-7.29.21-1.43-.79-4.34-1.72-2.49-4.66Z"/>
        <path class="cls-1" d="M293.85,60.78c.08,1.6-.63,2.88-1.63,4.04-1.21-2.05-.27-3.24,1.63-4.04Z"/>
        <path class="cls-1" d="M301.14,55.93c-.24.83-.76,1.15-1.61.88.13-1.02.28-2.02,1.61-.88Z"/>
        <path class="cls-1" d="M298.39,57.19c-.48.75-1.08,1.31-2.06,1.2.08-1.44.85-1.7,2.06-1.2Z"/>
        <path class="cls-1" d="M408.64,60.04c-.17,1.6-.71,3.02-2.01,4.06-1.35-1.79-.8-2.91,2.01-4.06Z"/>
        <path class="cls-1" d="M414.33,56.1c-1.16,1.79-2.99,2.57-4.91,3.21.28-3.14,2.81-2.85,4.91-3.21Z"/>
        <path class="cls-1" d="M410.85,73.44c1.69-.03,3.38-.06,5.08-.09-1.66,1.79-3.35,1.88-5.08.09Z"/>
        <path class="cls-1" d="M421.87,70.22c.17-1.33,1.37-1.97,2.01-2.98.73,1.94.12,2.98-2.01,2.98Z"/>
        <path class="cls-1" d="M418.5,55.12c-.59.75-1.23.76-1.91.12.59-.77,1.23-.76,1.91-.12Z"/>
        <path class="cls-1" d="M406.26,68.01c.78.36.9.95.58,1.69-.64.08-1.21,0-1.37-.76-.13-.62.3-.82.8-.93Z"/>
        <path class="cls-1" d="M418.02,72.74c.17-1.09.83-1.46,1.87-1.28-.09,1.21-.74,1.59-1.87,1.28Z"/>
        <path class="cls-1" d="M407.12,70.21c1.16.15,1.46.86,1.27,1.91-1.16-.15-1.56-.8-1.27-1.91Z"/>
      </g>
      <path class="cls-4" d="M59.19,2.91c-.28.6-.62,1.17-.29,1.9,2.43,5.48,1.12,10.54-1.9,15.33-.69,1.1-.8,2.11-.67,3.29.96.17,1.42-.55,1.97-1,4.14-3.38,8.7-5.63,14.22-5.37,1.12.05,2.15.33,3.06,1,.89.65.95,1.34.08,1.99-.74.55-1.59.98-2.51,1.14-2.93.52-5.59,1.6-8.18,3.11-1.78,1.05-3.87,1.64-5.89,2.19-1.59.44-2.84,1.01-3.1,2.8-.06.41-.64.57-.56,1.08.44.43,1.01.51,1.59.59,7.9,1.08,13.49,5.64,17.86,11.98.47.68.88,1.5,1.01,2.3,1.61,10.4.98,15.81-7.04,22.34-1.83,1.49-3.9,2.64-5.99,3.73-1.4.73-2.81.94-4.39.57-2.62-.62-5.22-1.35-7.73-2.31-1.09-.42-1.55-.09-1.89.86-.47,1.35-.89,2.72-1.45,4.03-2.14,5.05-3.76,6.11-9.24,5.92-3.3-.11-6.31-.96-8.49-3.72-.83-1.05-1.82-1.98-2.72-2.99-2.15-2.42-2.88-5.25-2.34-8.42.08-.5.15-1,.18-1.5.25-4.45.26-4.4-3.99-3.53-4.84.99-9.53.91-13.71-2.26-3.11-2.36-4.31-5.52-3.85-9.29.43-3.55,2.51-5.77,5.92-6.77.95-.28,1.98-.34,3.02-1-1.12-2.05-2.22-4.11-3.36-6.13-2.21-3.92-2.3-8.05-1.03-12.22,1.01-3.33,3.54-5.66,5.92-8.04,4.22-4.24,9.56-5.36,15.27-5.4,2.24-.01,4.33.87,6.29,1.7,3.47,1.48,6.77,3.45,9.02,6.64,1.34,1.9,2.83,3.72,3.64,6,.72,2.02,1.57,2,2.97.26,1.53-1.9,2.25-4,2.39-6.48.16-2.92.19-5.87.75-8.78.31-1.6.87-2.88,2.42-3.57.82-.37,1.47-.86,1.18-1.92.5-.65,1.01-.67,1.55-.04ZM54.83,65.83c6.83-.15,12.51-2.36,15.68-8.92.99-2.05,1.75-4.2,2.14-6.44.77-4.36-.52-8.27-4.07-10.72-4.47-3.08-9.68-4.59-15.14-5.05-1.41-.12-2.58.35-3.68,1.3-1.91,1.67-3.66,3.47-5.18,5.49-2.27,3.01-4.75,5.85-6.83,9.03-2.2,3.36-4.68,6.54-7.06,9.78-2.9,3.93-2.33,8.04-1.67,12.28.1.65.57,1.21,1.14,1.62,2.16,1.52,4.59,2.19,7.15,1.67,3.72-.75,5.87-3.38,7.19-6.76.95-2.42.46-4.63-1.33-6.51-.98-1.04-2.02-2.01-3.04-3.02-.85-.84-1.51-1.8-1.76-3-.07-.36.02-.7.31-.9.29-.2.65-.15.94.05.7.47,1.29,1.06,1.84,1.7,1.79,2.08,3.35,4.42,6.15,5.39.58.2,1.11.8,1.46,1.34.77,1.21,1.97,1.5,3.23,1.65.83.1,1.68.02,2.52.02ZM25.44,45.71c-1.01.61-1.78.04-2.49-.27-2.92-1.28-6.03-1.41-9.13-1.55-1.23-.06-2.22.49-3.12,1.38-2.4,2.37-3.11,5.31-3.05,8.52.03,1.76,1.16,2.88,2.9,2.8,3.61-.17,7.21-.36,10.79-.98,2.44-.42,4.53-1.47,6.08-3.29,2.39-2.81,5.16-5.3,7.29-8.33,1.41-2.01,3.06-3.78,4.86-5.44,1.98-1.83,3.62-3.97,5.1-6.22,1.02-1.55,1.2-3.13-.02-4.67-1.07-1.35-1.63-2.92-2.04-4.57-.32-1.31-.79-2.58-1.44-3.76-1.27-2.32-2.86-4.5-5.28-5.6-3.3-1.5-6.91-1.84-10.34-.61-5.44,1.95-9.63,5.4-11.7,11.02-1.31,3.55-1.59,7.25-1.23,10.94.32,3.26,2.1,5.58,5.53,6.38,1.38.32,2.73.86,4.05,1.39,1.39.56,2.54,1.44,3.24,2.86Z"/>
      <path class="cls-2" d="M39.62,41.32c.17.02.34.04.5.06-.2.24-.36.18-.5-.06Z"/>
      <g>
        <path class="cls-3" d="M97.52,60.79c.93,1.62,1.3,3.34,1.04,5.13-.18.85-.64,1.71-.73,2.56-.1.85.05,1.71.32,2.56.54,1.68.76,3.39.74,5.13-.13,1.71-.46,3.42-1.37,5.13,0,0-.28,0-.28,0-.91-1.71-1.25-3.42-1.37-5.13-.02-1.74.2-3.45.74-5.13.27-.85.42-1.71.32-2.56-.09-.85-.54-1.71-.72-2.56-.18-.85-.07-1.71.08-2.56.17-.85.43-1.71.96-2.56h.28Z"/>
        <path class="cls-3" d="M97.52,41.15c.93,1.62,1.3,3.34,1.04,5.13-.18.85-.64,1.71-.73,2.56-.1.85.05,1.71.32,2.56.54,1.68.76,3.39.74,5.13-.13,1.71-.46,3.42-1.37,5.13,0,0-.28,0-.28,0-.91-1.71-1.25-3.42-1.37-5.13-.02-1.74.2-3.45.74-5.13.27-.85.42-1.71.32-2.56-.09-.85-.54-1.71-.72-2.56-.18-.85-.07-1.71.08-2.56.17-.85.43-1.71.96-2.56,0,0,.28,0,.28,0h0Z"/>
        <path class="cls-3" d="M97.52,21.36c.93,1.62,1.3,3.34,1.04,5.13-.18.85-.64,1.71-.73,2.56-.1.85.05,1.71.32,2.56.54,1.68.76,3.39.74,5.13-.13,1.71-.46,3.42-1.37,5.13h-.28c-.91-1.71-1.25-3.42-1.37-5.13-.02-1.74.2-3.45.74-5.13.27-.85.42-1.71.32-2.56-.09-.85-.54-1.71-.72-2.56-.18-.85-.07-1.71.08-2.56.17-.85.43-1.71.96-2.56h.28Z"/>
        <path class="cls-3" d="M97.52,1.56c.93,1.62,1.3,3.34,1.04,5.13-.18.85-.64,1.71-.73,2.56-.1.85.05,1.71.32,2.56.54,1.68.76,3.39.74,5.13-.13,1.71-.46,3.42-1.37,5.13,0,0-.28,0-.28,0-.91-1.71-1.25-3.42-1.37-5.13-.02-1.74.2-3.45.74-5.13.27-.85.42-1.71.32-2.56-.09-.85-.54-1.71-.72-2.56-.18-.85-.07-1.71.08-2.56.17-.85.43-1.71.96-2.56h.28Z"/>
      </g>
    </g>
  </g>
</svg>